Coordinates
version=1
nRows=4
nColumns=63
inDegrees=yes

Units are S.I. units (second, meters, Newtons, ...)
If the header above contains a line with 'inDegrees', this indicates whether rotational values are in degrees (yes) or radians (no).

endheader
time	pelvis_tilt	pelvis_list	pelvis_rotation	pelvis_tx	pelvis_ty	pelvis_tz	hip_flexion_r	hip_adduction_r	hip_rotation_r	knee_angle_r	knee_angle_r_beta	ankle_angle_r	subtalar_angle_r	mtp_angle_r	hip_flexion_l	hip_adduction_l	hip_rotation_l	knee_angle_l	knee_angle_l_beta	ankle_angle_l	subtalar_angle_l	mtp_angle_l	L5_S1_Flex_Ext	L5_S1_Lat_Bending	L5_S1_axial_rotation	L4_L5_Flex_Ext	L4_L5_Lat_Bending	L4_L5_axial_rotation	L3_L4_Flex_Ext	L3_L4_Lat_Bending	L3_L4_axial_rotation	L2_L3_Flex_Ext	L2_L3_Lat_Bending	L2_L3_axial_rotation	L1_L2_Flex_Ext	L1_L2_Lat_Bending	L1_L2_axial_rotation	L1_T12_Flex_Ext	L1_T12_Lat_Bending	L1_T12_axial_rotation	Abs_r3	Abs_r2	Abs_r1	Abs_t1	Abs_t2	neck_flexion	neck_bending	neck_rotation	arm_flex_r	arm_add_r	arm_rot_r	elbow_flex_r	pro_sup_r	wrist_flex_r	wrist_dev_r	arm_flex_l	arm_add_l	arm_rot_l	elbow_flex_l	pro_sup_l	wrist_flex_l	wrist_dev_l
      1.11764706	     -5.48476993	     -7.59392938	     97.24546686	      0.28813390	      0.77760625	      0.76871842	     -5.64271152	      0.42752380	    -18.11501628	      0.78564059	      0.01371202	     19.07959951	      4.03683531	      0.00000000	     -2.24130734	     -0.65450261	      5.69737828	      0.26997652	      0.00471198	     33.23820740	      3.91730965	      0.00000000	      0.09722091	      0.06019932	     -1.28597758	      0.18054896	      0.08006510	     -1.36635118	      0.15972424	      0.14636863	     -1.36635118	      0.11111378	      0.14636863	     -1.12523038	      0.09027934	      0.12275846	     -1.04485678	      0.05555203	      0.09324875	     -0.96448319	      0.69443926	      0.68098678	     -7.15222151	      0.00000000	      0.00000000	     16.19977263	      4.53387961	      9.59230935	     21.60489042	    -11.69150948	     84.23214846	     50.20752190	     17.77953860	      0.08943832	     27.89924512	      6.64463072	     -8.48008264	     39.44422081	     51.80129180	     85.40857392	     13.85878718	     11.59611497
      1.13725490	     -5.47170767	     -7.54586291	     97.29269910	      0.28794476	      0.77765892	      0.76884246	     -5.67599078	      0.43789610	    -17.41432509	      0.71095323	      0.01240847	     19.74267903	      3.52630284	      0.00000000	     -2.28158999	     -0.66702446	      5.74721114	      0.27359869	      0.00477520	     32.87845122	      3.87668880	      0.00000000	      0.07355948	      0.06396807	     -1.28961172	      0.13660730	      0.08507753	     -1.37021246	      0.12085086	      0.15553196	     -1.37021246	      0.08407113	      0.15553196	     -1.12841026	      0.06830733	      0.13044368	     -1.04780953	      0.04203188	      0.09908654	     -0.96720879	      0.52542798	      0.72361957	     -7.17243353	      0.00000000	      0.00000000	     16.45649684	      4.67273531	      9.81630273	     21.64363770	    -11.77676724	     84.05285662	     50.30364909	     18.57774072	      0.39672777	     27.88854347	      6.80104449	     -8.59375964	     39.80663067	     51.90322828	     85.03616068	     14.07918235	     11.79531658
      1.15686275	     -5.47613193	     -7.64991470	     97.35434138	      0.28777721	      0.77743605	      0.76873382	     -5.58344201	      0.43411681	    -15.47573864	      0.61037505	      0.01065305	     19.98400688	      1.36243294	      0.00000000	     -2.18167318	     -0.64067444	      6.29444414	      0.27473640	      0.00479505	     32.37491336	      3.17293629	      0.00000000	      0.08782831	      0.06016473	     -1.30256994	      0.16310596	      0.08001910	     -1.38398056	      0.14429313	      0.14628453	     -1.38398056	      0.10037898	      0.14628453	     -1.13974870	      0.08155737	      0.12268793	     -1.05833808	      0.05018510	      0.09319517	     -0.97692746	      0.62734885	      0.68059550	     -7.24450324	      0.00000000	      0.00000000	     16.46795013	      4.81789530	      9.86197194	     21.38299734	    -11.79957694	     83.40398976	     50.46965674	     17.68941308	     -0.19107080	     28.66123364	      6.47176071	     -8.40752617	     38.77788052	     51.93364353	     85.45221233	     15.63029529	     12.22512346
      1.17647059	     -5.43693451	     -7.58382770	     97.33127749	      0.28755982	      0.77764648	      0.76889701	     -5.47308859	      0.41316695	    -15.49643562	      0.89015984	      0.01553622	     20.45283091	      1.68972173	      0.00000000	     -2.16152264	     -0.66482537	      5.35110362	      0.45607646	      0.00796004	     32.22890160	      4.19915198	      0.00000000	      0.07952837	      0.07114968	     -1.29461685	      0.14769214	      0.09462907	     -1.37553041	      0.13065717	      0.17299333	     -1.37553041	      0.09089298	      0.17299333	     -1.13278975	      0.07385005	      0.14508842	     -1.05187619	      0.04544251	      0.11021085	     -0.97096264	      0.56806322	      0.80485940	     -7.20027055	      0.00000000	      0.00000000	     16.29453969	      4.66426168	      9.97738775	     21.58571625	    -11.92414746	     83.80838959	     50.45242045	     19.88035212	      0.96575478	     27.66970774	      6.76004970	     -8.58641365	     39.91168112	     51.79976509	     83.17073827	     14.98270872	     12.06905134
